<svg xmlns="http://www.w3.org/2000/svg" width="1200" height="760" viewBox="0 0 1200 760">
  
  <defs>
    <linearGradient id="bgGrad" x1="0" y1="0" x2="1" y2="1">
      <stop offset="0%" stop-color="#FFF8EF"/>
      <stop offset="100%" stop-color="#FFFFFF"/>
    </linearGradient>
    <linearGradient id="accentGrad" x1="0" y1="0" x2="1" y2="1">
      <stop offset="0%" stop-color="#12B8A6"/>
      <stop offset="100%" stop-color="#F85A96"/>
    </linearGradient>
    <filter id="softShadow" x="-20%" y="-20%" width="140%" height="140%">
      <feDropShadow dx="0" dy="10" stdDeviation="10" flood-opacity="0.16"/>
    </filter>
    <filter id="lightShadow" x="-20%" y="-20%" width="140%" height="140%">
      <feDropShadow dx="0" dy="4" stdDeviation="5" flood-opacity="0.12"/>
    </filter>
    <pattern id="paperGrain" width="10" height="10" patternUnits="userSpaceOnUse">
      <circle cx="2" cy="2" r="0.7" fill="#000" opacity="0.04"/>
    </pattern>
  </defs>
  <rect width="1200" height="760" fill="url(#bgGrad)"/>
  <rect x="36" y="36" width="1128" height="688" rx="30" fill="#FFFFFF" stroke="#D7E7E4"/>
  <text x="84" y="100" font-family="Inter, Arial, sans-serif" font-size="32" font-weight="700" fill="#192840">Εφαρμογή: Στολή προσωπικού</text>
  <line x1="84" y1="122" x2="1116" y2="122" stroke="#D7E7E4"/>
  
  <rect x="150" y="176" width="900" height="520" rx="26" fill="#F2F5F8"/>
  <path d="M390 286 L810 286 L890 370 L846 430 L790 388 L790 624 L410 624 L410 388 L354 430 L310 370 Z" fill="#FFFFFF" stroke="#D7E7E4" stroke-width="4" filter="url(#softShadow)"/>
  <path d="M510 286 Q600 356 690 286" fill="none" stroke="#D7E7E4" stroke-width="4"/>
  <circle cx="700" cy="430" r="84" fill="#E9F8F6" stroke="#D7E7E4"/>
  
  <g transform="translate(640,372) scale(0.48)">
    <path d="M126 24 C190 24, 230 76, 230 130 C230 196, 178 242, 116 242 C68 242, 24 212, 8 164" fill="none" stroke="#F85A96" stroke-width="18" stroke-linecap="round"/>
    <path d="M126 58 C170 58, 198 96, 198 132 C198 178, 160 214, 114 214 C80 214, 50 194, 36 164" fill="none" stroke="#12B8A6" stroke-width="15" stroke-linecap="round"/>
    <path d="M126 90 C150 90, 166 110, 166 128 C166 154, 144 174, 118 174" fill="none" stroke="#0B7C73" stroke-width="10" stroke-linecap="round"/>
    <circle cx="126" cy="130" r="8" fill="#0B7C73"/>
    <circle cx="230" cy="74" r="6" fill="#FFD95A"/>
    <circle cx="24" cy="86" r="5" fill="#FFD95A"/>
  </g>
  <text x="192" y="630" font-family="Inter, Arial, sans-serif" font-size="28" font-weight="700" fill="#192840">Στολή προσωπικού με κεντημένο σήμα</text>
  
  <rect width="100%" height="100%" fill="url(#paperGrain)" opacity="0.12"/>
</svg>
