<svg xmlns="http://www.w3.org/2000/svg" width="512" height="512" viewBox="0 0 512 512">
  
  <defs>
    <linearGradient id="bgGrad" x1="0" y1="0" x2="1" y2="1">
      <stop offset="0%" stop-color="#FFF7EE"/>
      <stop offset="100%" stop-color="#FFFFFF"/>
    </linearGradient>
    <linearGradient id="accentGrad" x1="0" y1="0" x2="1" y2="1">
      <stop offset="0%" stop-color="#17AAB5"/>
      <stop offset="100%" stop-color="#FF7A59"/>
    </linearGradient>
    <filter id="softShadow" x="-20%" y="-20%" width="140%" height="140%">
      <feDropShadow dx="0" dy="10" stdDeviation="10" flood-opacity="0.16"/>
    </filter>
    <filter id="lightShadow" x="-20%" y="-20%" width="140%" height="140%">
      <feDropShadow dx="0" dy="4" stdDeviation="5" flood-opacity="0.12"/>
    </filter>
    <pattern id="paperGrain" width="10" height="10" patternUnits="userSpaceOnUse">
      <circle cx="2" cy="2" r="0.7" fill="#000" opacity="0.04"/>
    </pattern>
  </defs>
  <rect width="100%" height="100%" rx="120" fill="url(#accentGrad)"/>
  <rect x="36" y="36" width="440" height="440" rx="108" fill="#FFFFFF" opacity="0.95"/>
  
  <g transform="translate(122,118) scale(1.12)">
    <path d="M18 136 C56 48, 170 36, 214 124" fill="none" stroke="#17AAB5" stroke-width="20" stroke-linecap="round"/>
    <path d="M52 142 C82 100, 144 98, 178 142" fill="none" stroke="#0E6E86" stroke-width="12" stroke-linecap="round"/>
    <circle cx="118" cy="158" r="13" fill="#FF7A59"/>
    <path d="M106 92 L132 92 L132 116" fill="none" stroke="#0E6E86" stroke-width="7" stroke-linecap="round"/>
    <circle cx="228" cy="102" r="6" fill="#F4C84A"/>
    <circle cx="6" cy="120" r="4" fill="#F4C84A"/>
  </g>
  <circle cx="418" cy="108" r="16" fill="#F4C84A"/>
</svg>
