<svg xmlns="http://www.w3.org/2000/svg" width="620" height="680" viewBox="0 0 620 680">
  
  <defs>
    <linearGradient id="bgGrad" x1="0" y1="0" x2="1" y2="1">
      <stop offset="0%" stop-color="#FFF7EE"/>
      <stop offset="100%" stop-color="#FFFFFF"/>
    </linearGradient>
    <linearGradient id="accentGrad" x1="0" y1="0" x2="1" y2="1">
      <stop offset="0%" stop-color="#17AAB5"/>
      <stop offset="100%" stop-color="#FF7A59"/>
    </linearGradient>
    <filter id="softShadow" x="-20%" y="-20%" width="140%" height="140%">
      <feDropShadow dx="0" dy="10" stdDeviation="10" flood-opacity="0.16"/>
    </filter>
    <filter id="lightShadow" x="-20%" y="-20%" width="140%" height="140%">
      <feDropShadow dx="0" dy="4" stdDeviation="5" flood-opacity="0.12"/>
    </filter>
    <pattern id="paperGrain" width="10" height="10" patternUnits="userSpaceOnUse">
      <circle cx="2" cy="2" r="0.7" fill="#000" opacity="0.04"/>
    </pattern>
  </defs>
  <rect width="100%" height="100%" fill="#FFFFFF"/>
  <rect x="18" y="18" width="584" height="644" rx="34" fill="#EAF5F3" stroke="#D7E7E4"/>
  
  <g transform="translate(182,100) scale(1.06)">
    <path d="M18 136 C56 48, 170 36, 214 124" fill="none" stroke="#17AAB5" stroke-width="20" stroke-linecap="round"/>
    <path d="M52 142 C82 100, 144 98, 178 142" fill="none" stroke="#0E6E86" stroke-width="12" stroke-linecap="round"/>
    <circle cx="118" cy="158" r="13" fill="#FF7A59"/>
    <path d="M106 92 L132 92 L132 116" fill="none" stroke="#0E6E86" stroke-width="7" stroke-linecap="round"/>
    <circle cx="228" cy="102" r="6" fill="#F4C84A"/>
    <circle cx="6" cy="120" r="4" fill="#F4C84A"/>
  </g>
  <text x="310" y="468" text-anchor="middle" font-family="Nunito, Arial, sans-serif" font-size="96" font-weight="800" fill="#1C2F3A">Τιραμόλα</text>
  <text x="310" y="524" text-anchor="middle" font-family="Inter, Arial, sans-serif" font-size="28" font-weight="700" fill="#0E6E86">Ασφαλής Αγκαλιά</text>
</svg>
