<svg xmlns="http://www.w3.org/2000/svg" width="1200" height="760" viewBox="0 0 1200 760">
  
  <defs>
    <linearGradient id="bgGrad" x1="0" y1="0" x2="1" y2="1">
      <stop offset="0%" stop-color="#F8F4EF"/>
      <stop offset="100%" stop-color="#FFFFFF"/>
    </linearGradient>
    <linearGradient id="accentGrad" x1="0" y1="0" x2="1" y2="1">
      <stop offset="0%" stop-color="#0D7A83"/>
      <stop offset="100%" stop-color="#E86A7C"/>
    </linearGradient>
    <filter id="softShadow" x="-20%" y="-20%" width="140%" height="140%">
      <feDropShadow dx="0" dy="10" stdDeviation="10" flood-opacity="0.16"/>
    </filter>
    <filter id="lightShadow" x="-20%" y="-20%" width="140%" height="140%">
      <feDropShadow dx="0" dy="4" stdDeviation="5" flood-opacity="0.12"/>
    </filter>
    <pattern id="paperGrain" width="10" height="10" patternUnits="userSpaceOnUse">
      <circle cx="2" cy="2" r="0.7" fill="#000" opacity="0.04"/>
    </pattern>
  </defs>
  <rect width="1200" height="760" fill="url(#bgGrad)"/>
  <rect x="36" y="36" width="1128" height="688" rx="30" fill="#FFFFFF" stroke="#D7E7E4"/>
  <text x="84" y="100" font-family="Inter, Arial, sans-serif" font-size="32" font-weight="700" fill="#16253D">Εφαρμογή: Φύλλο αυτοκόλλητων</text>
  <line x1="84" y1="122" x2="1116" y2="122" stroke="#D7E7E4"/>
  
  <rect x="124" y="182" width="952" height="500" rx="28" fill="#FFFFFF" stroke="#D7E7E4"/>
  <rect x="178" y="232" width="224" height="154" rx="32" fill="#EEF3F8" stroke="#D7E7E4"/>
  <g transform="translate(234,258) scale(0.32)">
    <rect x="18" y="24" width="188" height="34" rx="17" fill="#0F2A4A"/>
    <rect x="92" y="56" width="36" height="174" rx="16" fill="#0D7A83"/>
    <path d="M82 166 C98 186, 116 194, 136 194 C156 194, 174 184, 190 166" fill="none" stroke="#E86A7C" stroke-width="11" stroke-linecap="round"/>
    <circle cx="196" cy="34" r="7" fill="#E9C46A"/>
    <rect x="12" y="16" width="200" height="222" rx="34" fill="none" stroke="#CAD7E2" stroke-width="2" opacity="0.6"/>
  </g><circle cx="592" cy="310" r="78" fill="#EEF3F8" stroke="#D7E7E4"/>
  <g transform="translate(536,258) scale(0.32)">
    <rect x="18" y="24" width="188" height="34" rx="17" fill="#0F2A4A"/>
    <rect x="92" y="56" width="36" height="174" rx="16" fill="#0D7A83"/>
    <path d="M82 166 C98 186, 116 194, 136 194 C156 194, 174 184, 190 166" fill="none" stroke="#E86A7C" stroke-width="11" stroke-linecap="round"/>
    <circle cx="196" cy="34" r="7" fill="#E9C46A"/>
    <rect x="12" y="16" width="200" height="222" rx="34" fill="none" stroke="#CAD7E2" stroke-width="2" opacity="0.6"/>
  </g><rect x="782" y="232" width="224" height="154" rx="32" fill="#F8F4EF" stroke="#D7E7E4"/>
  <g transform="translate(838,258) scale(0.32)">
    <rect x="18" y="24" width="188" height="34" rx="17" fill="#0F2A4A"/>
    <rect x="92" y="56" width="36" height="174" rx="16" fill="#0D7A83"/>
    <path d="M82 166 C98 186, 116 194, 136 194 C156 194, 174 184, 190 166" fill="none" stroke="#E86A7C" stroke-width="11" stroke-linecap="round"/>
    <circle cx="196" cy="34" r="7" fill="#E9C46A"/>
    <rect x="12" y="16" width="200" height="222" rx="34" fill="none" stroke="#CAD7E2" stroke-width="2" opacity="0.6"/>
  </g><circle cx="290" cy="530" r="78" fill="#F8F4EF" stroke="#D7E7E4"/>
  <g transform="translate(234,478) scale(0.32)">
    <rect x="18" y="24" width="188" height="34" rx="17" fill="#0F2A4A"/>
    <rect x="92" y="56" width="36" height="174" rx="16" fill="#0D7A83"/>
    <path d="M82 166 C98 186, 116 194, 136 194 C156 194, 174 184, 190 166" fill="none" stroke="#E86A7C" stroke-width="11" stroke-linecap="round"/>
    <circle cx="196" cy="34" r="7" fill="#E9C46A"/>
    <rect x="12" y="16" width="200" height="222" rx="34" fill="none" stroke="#CAD7E2" stroke-width="2" opacity="0.6"/>
  </g><rect x="480" y="452" width="224" height="154" rx="32" fill="#F8F4EF" stroke="#D7E7E4"/>
  <g transform="translate(536,478) scale(0.32)">
    <rect x="18" y="24" width="188" height="34" rx="17" fill="#0F2A4A"/>
    <rect x="92" y="56" width="36" height="174" rx="16" fill="#0D7A83"/>
    <path d="M82 166 C98 186, 116 194, 136 194 C156 194, 174 184, 190 166" fill="none" stroke="#E86A7C" stroke-width="11" stroke-linecap="round"/>
    <circle cx="196" cy="34" r="7" fill="#E9C46A"/>
    <rect x="12" y="16" width="200" height="222" rx="34" fill="none" stroke="#CAD7E2" stroke-width="2" opacity="0.6"/>
  </g><circle cx="894" cy="530" r="78" fill="#F8F4EF" stroke="#D7E7E4"/>
  <g transform="translate(838,478) scale(0.32)">
    <rect x="18" y="24" width="188" height="34" rx="17" fill="#0F2A4A"/>
    <rect x="92" y="56" width="36" height="174" rx="16" fill="#0D7A83"/>
    <path d="M82 166 C98 186, 116 194, 136 194 C156 194, 174 184, 190 166" fill="none" stroke="#E86A7C" stroke-width="11" stroke-linecap="round"/>
    <circle cx="196" cy="34" r="7" fill="#E9C46A"/>
    <rect x="12" y="16" width="200" height="222" rx="34" fill="none" stroke="#CAD7E2" stroke-width="2" opacity="0.6"/>
  </g>
  <text x="160" y="648" font-family="Inter, Arial, sans-serif" font-size="27" font-weight="700" fill="#16253D">Σετ αυτοκόλλητων για αίθουσες, τετράδια και παιδικά badges</text>
  
  <rect width="100%" height="100%" fill="url(#paperGrain)" opacity="0.12"/>
</svg>
