<svg xmlns="http://www.w3.org/2000/svg" width="1200" height="760" viewBox="0 0 1200 760">
  
  <defs>
    <linearGradient id="bgGrad" x1="0" y1="0" x2="1" y2="1">
      <stop offset="0%" stop-color="#F8F4EF"/>
      <stop offset="100%" stop-color="#FFFFFF"/>
    </linearGradient>
    <linearGradient id="accentGrad" x1="0" y1="0" x2="1" y2="1">
      <stop offset="0%" stop-color="#0D7A83"/>
      <stop offset="100%" stop-color="#E86A7C"/>
    </linearGradient>
    <filter id="softShadow" x="-20%" y="-20%" width="140%" height="140%">
      <feDropShadow dx="0" dy="10" stdDeviation="10" flood-opacity="0.16"/>
    </filter>
    <filter id="lightShadow" x="-20%" y="-20%" width="140%" height="140%">
      <feDropShadow dx="0" dy="4" stdDeviation="5" flood-opacity="0.12"/>
    </filter>
    <pattern id="paperGrain" width="10" height="10" patternUnits="userSpaceOnUse">
      <circle cx="2" cy="2" r="0.7" fill="#000" opacity="0.04"/>
    </pattern>
  </defs>
  <rect width="1200" height="760" fill="url(#bgGrad)"/>
  <rect x="36" y="36" width="1128" height="688" rx="30" fill="#FFFFFF" stroke="#D7E7E4"/>
  <text x="84" y="100" font-family="Inter, Arial, sans-serif" font-size="32" font-weight="700" fill="#16253D">Εφαρμογή: Κεντρική ενότητα ιστοσελίδας</text>
  <line x1="84" y1="122" x2="1116" y2="122" stroke="#D7E7E4"/>
  
  <rect x="108" y="170" width="984" height="520" rx="26" fill="#F4F7FA" stroke="#D7E7E4"/>
  <rect x="108" y="170" width="984" height="52" rx="26" fill="#EAF0F4"/>
  <circle cx="144" cy="196" r="7" fill="#E97B86"/>
  <circle cx="168" cy="196" r="7" fill="#F3CA63"/>
  <circle cx="192" cy="196" r="7" fill="#6CC6A2"/>
  <rect x="136" y="252" width="454" height="372" rx="24" fill="#FFFFFF" stroke="#D7E7E4"/>
  <text x="168" y="318" font-family="Poppins, Nunito, Arial, sans-serif" font-size="56" font-weight="800" fill="#16253D">Καλωσήρθες στην Τιραμόλα</text>
  <text x="168" y="364" font-family="Inter, Arial, sans-serif" font-size="26" font-weight="500" fill="#0F2A4A">Φροντίδα, παιχνίδι και μάθηση για ηλικίες 0-5.</text>
  <rect x="168" y="400" width="238" height="52" rx="26" fill="#0D7A83"/>
  <text x="226" y="434" font-family="Inter, Arial, sans-serif" font-size="24" font-weight="700" fill="#FFFFFF">Μάθε περισσότερα</text>
  <rect x="620" y="252" width="438" height="372" rx="24" fill="#F8F4EF"/>
  
  <g transform="translate(710,312) scale(0.9)">
    <rect x="18" y="24" width="188" height="34" rx="17" fill="#0F2A4A"/>
    <rect x="92" y="56" width="36" height="174" rx="16" fill="#0D7A83"/>
    <path d="M82 166 C98 186, 116 194, 136 194 C156 194, 174 184, 190 166" fill="none" stroke="#E86A7C" stroke-width="11" stroke-linecap="round"/>
    <circle cx="196" cy="34" r="7" fill="#E9C46A"/>
    <rect x="12" y="16" width="200" height="222" rx="34" fill="none" stroke="#CAD7E2" stroke-width="2" opacity="0.6"/>
  </g>
  
  <rect width="100%" height="100%" fill="url(#paperGrain)" opacity="0.12"/>
</svg>
