<svg xmlns="http://www.w3.org/2000/svg" width="512" height="512" viewBox="0 0 512 512">
  
  <defs>
    <linearGradient id="bgGrad" x1="0" y1="0" x2="1" y2="1">
      <stop offset="0%" stop-color="#FFF8EF"/>
      <stop offset="100%" stop-color="#FFFFFF"/>
    </linearGradient>
    <linearGradient id="accentGrad" x1="0" y1="0" x2="1" y2="1">
      <stop offset="0%" stop-color="#12B8A6"/>
      <stop offset="100%" stop-color="#F85A96"/>
    </linearGradient>
    <filter id="softShadow" x="-20%" y="-20%" width="140%" height="140%">
      <feDropShadow dx="0" dy="10" stdDeviation="10" flood-opacity="0.16"/>
    </filter>
    <filter id="lightShadow" x="-20%" y="-20%" width="140%" height="140%">
      <feDropShadow dx="0" dy="4" stdDeviation="5" flood-opacity="0.12"/>
    </filter>
    <pattern id="paperGrain" width="10" height="10" patternUnits="userSpaceOnUse">
      <circle cx="2" cy="2" r="0.7" fill="#000" opacity="0.04"/>
    </pattern>
  </defs>
  <rect width="100%" height="100%" rx="120" fill="url(#accentGrad)"/>
  <rect x="36" y="36" width="440" height="440" rx="108" fill="#FFFFFF" opacity="0.95"/>
  
  <g transform="translate(122,118) scale(1.12)">
    <path d="M126 24 C190 24, 230 76, 230 130 C230 196, 178 242, 116 242 C68 242, 24 212, 8 164" fill="none" stroke="#F85A96" stroke-width="18" stroke-linecap="round"/>
    <path d="M126 58 C170 58, 198 96, 198 132 C198 178, 160 214, 114 214 C80 214, 50 194, 36 164" fill="none" stroke="#12B8A6" stroke-width="15" stroke-linecap="round"/>
    <path d="M126 90 C150 90, 166 110, 166 128 C166 154, 144 174, 118 174" fill="none" stroke="#0B7C73" stroke-width="10" stroke-linecap="round"/>
    <circle cx="126" cy="130" r="8" fill="#0B7C73"/>
    <circle cx="230" cy="74" r="6" fill="#FFD95A"/>
    <circle cx="24" cy="86" r="5" fill="#FFD95A"/>
  </g>
  <circle cx="418" cy="108" r="16" fill="#FFD95A"/>
</svg>
