<svg xmlns="http://www.w3.org/2000/svg" width="1120" height="420" viewBox="0 0 1120 420">
  <rect width="100%" height="100%" fill="#F7F8FA"/>
  <rect x="22" y="22" width="1076" height="376" rx="34" fill="#FFFFFF" stroke="#D7DEE6"/>
  
  <g transform="translate(88,86) scale(1)">
    <path d="M126 24 C190 24, 230 76, 230 130 C230 196, 178 242, 116 242 C68 242, 24 212, 8 164" fill="none" stroke="#1D2430" stroke-width="18" stroke-linecap="round"/>
    <path d="M126 58 C170 58, 198 96, 198 132 C198 178, 160 214, 114 214 C80 214, 50 194, 36 164" fill="none" stroke="#1D2430" stroke-width="15" stroke-linecap="round"/>
    <path d="M126 90 C150 90, 166 110, 166 128 C166 154, 144 174, 118 174" fill="none" stroke="#1D2430" stroke-width="10" stroke-linecap="round"/>
    <circle cx="126" cy="130" r="8" fill="#1D2430"/>
    <circle cx="230" cy="74" r="6" fill="#1D2430"/>
    <circle cx="24" cy="86" r="5" fill="#1D2430"/>
  </g>
  <text x="400" y="188" font-family="Baloo 2, Nunito, Arial, sans-serif" font-size="122" font-weight="800" fill="#1D2430">Τιραμόλα</text>
  <text x="404" y="248" font-family="Inter, Arial, sans-serif" font-size="33" font-weight="700" fill="#1D2430">Σπείρα Περιέργειας</text>
  <line x1="404" y1="272" x2="786" y2="272" stroke="#1D2430" stroke-width="7" stroke-linecap="round"/>
</svg>
