<svg xmlns="http://www.w3.org/2000/svg" width="1200" height="760" viewBox="0 0 1200 760">
  
  <defs>
    <linearGradient id="bgGrad" x1="0" y1="0" x2="1" y2="1">
      <stop offset="0%" stop-color="#FFF7EE"/>
      <stop offset="100%" stop-color="#FFFFFF"/>
    </linearGradient>
    <linearGradient id="accentGrad" x1="0" y1="0" x2="1" y2="1">
      <stop offset="0%" stop-color="#17AAB5"/>
      <stop offset="100%" stop-color="#FF7A59"/>
    </linearGradient>
    <filter id="softShadow" x="-20%" y="-20%" width="140%" height="140%">
      <feDropShadow dx="0" dy="10" stdDeviation="10" flood-opacity="0.16"/>
    </filter>
    <filter id="lightShadow" x="-20%" y="-20%" width="140%" height="140%">
      <feDropShadow dx="0" dy="4" stdDeviation="5" flood-opacity="0.12"/>
    </filter>
    <pattern id="paperGrain" width="10" height="10" patternUnits="userSpaceOnUse">
      <circle cx="2" cy="2" r="0.7" fill="#000" opacity="0.04"/>
    </pattern>
  </defs>
  <rect width="1200" height="760" fill="url(#bgGrad)"/>
  <rect x="36" y="36" width="1128" height="688" rx="30" fill="#FFFFFF" stroke="#D7E7E4"/>
  <text x="84" y="100" font-family="Inter, Arial, sans-serif" font-size="32" font-weight="700" fill="#1C2F3A">Εφαρμογή: Ανάρτηση κοινωνικών δικτύων</text>
  <line x1="84" y1="122" x2="1116" y2="122" stroke="#D7E7E4"/>
  
  <rect x="122" y="168" width="350" height="500" rx="30" fill="#EAF5F3" stroke="#D7E7E4"/>
  <rect x="510" y="168" width="560" height="500" rx="30" fill="#FFFFFF" stroke="#D7E7E4"/>
  <rect x="548" y="206" width="484" height="244" rx="20" fill="#FFF7EE"/>
  
  <g transform="translate(696,250) scale(0.52)">
    <path d="M18 136 C56 48, 170 36, 214 124" fill="none" stroke="#17AAB5" stroke-width="20" stroke-linecap="round"/>
    <path d="M52 142 C82 100, 144 98, 178 142" fill="none" stroke="#0E6E86" stroke-width="12" stroke-linecap="round"/>
    <circle cx="118" cy="158" r="13" fill="#FF7A59"/>
    <path d="M106 92 L132 92 L132 116" fill="none" stroke="#0E6E86" stroke-width="7" stroke-linecap="round"/>
    <circle cx="228" cy="102" r="6" fill="#F4C84A"/>
    <circle cx="6" cy="120" r="4" fill="#F4C84A"/>
  </g>
  <text x="564" y="488" font-family="Nunito, Arial, sans-serif" font-size="44" font-weight="800" fill="#1C2F3A">Μικρές ανακαλύψεις, μεγάλα χαμόγελα</text>
  <text x="564" y="530" font-family="Inter, Arial, sans-serif" font-size="24" font-weight="600" fill="#0E6E86">#τιραμόλα #νηπιακήηλικία</text>
  <rect x="164" y="208" width="266" height="266" rx="34" fill="#FFFFFF" stroke="#D7E7E4"/>
  
  <g transform="translate(220,252) scale(0.76)">
    <path d="M18 136 C56 48, 170 36, 214 124" fill="none" stroke="#17AAB5" stroke-width="20" stroke-linecap="round"/>
    <path d="M52 142 C82 100, 144 98, 178 142" fill="none" stroke="#0E6E86" stroke-width="12" stroke-linecap="round"/>
    <circle cx="118" cy="158" r="13" fill="#FF7A59"/>
    <path d="M106 92 L132 92 L132 116" fill="none" stroke="#0E6E86" stroke-width="7" stroke-linecap="round"/>
    <circle cx="228" cy="102" r="6" fill="#F4C84A"/>
    <circle cx="6" cy="120" r="4" fill="#F4C84A"/>
  </g>
  <rect x="164" y="506" width="266" height="36" rx="18" fill="#17AAB5"/>
  <rect x="164" y="554" width="214" height="26" rx="13" fill="#F4C84A" opacity="0.8"/>
  
  <rect width="100%" height="100%" fill="url(#paperGrain)" opacity="0.12"/>
</svg>
