<svg xmlns="http://www.w3.org/2000/svg" width="1200" height="760" viewBox="0 0 1200 760">
  
  <defs>
    <linearGradient id="bgGrad" x1="0" y1="0" x2="1" y2="1">
      <stop offset="0%" stop-color="#FFF7EE"/>
      <stop offset="100%" stop-color="#FFFFFF"/>
    </linearGradient>
    <linearGradient id="accentGrad" x1="0" y1="0" x2="1" y2="1">
      <stop offset="0%" stop-color="#17AAB5"/>
      <stop offset="100%" stop-color="#FF7A59"/>
    </linearGradient>
    <filter id="softShadow" x="-20%" y="-20%" width="140%" height="140%">
      <feDropShadow dx="0" dy="10" stdDeviation="10" flood-opacity="0.16"/>
    </filter>
    <filter id="lightShadow" x="-20%" y="-20%" width="140%" height="140%">
      <feDropShadow dx="0" dy="4" stdDeviation="5" flood-opacity="0.12"/>
    </filter>
    <pattern id="paperGrain" width="10" height="10" patternUnits="userSpaceOnUse">
      <circle cx="2" cy="2" r="0.7" fill="#000" opacity="0.04"/>
    </pattern>
  </defs>
  <rect width="1200" height="760" fill="url(#bgGrad)"/>
  <rect x="36" y="36" width="1128" height="688" rx="30" fill="#FFFFFF" stroke="#D7E7E4"/>
  <text x="84" y="100" font-family="Inter, Arial, sans-serif" font-size="32" font-weight="700" fill="#1C2F3A">Εφαρμογή: Φύλλο αυτοκόλλητων</text>
  <line x1="84" y1="122" x2="1116" y2="122" stroke="#D7E7E4"/>
  
  <rect x="124" y="182" width="952" height="500" rx="28" fill="#FFFFFF" stroke="#D7E7E4"/>
  <rect x="178" y="232" width="224" height="154" rx="32" fill="#EAF5F3" stroke="#D7E7E4"/>
  <g transform="translate(234,258) scale(0.32)">
    <path d="M18 136 C56 48, 170 36, 214 124" fill="none" stroke="#17AAB5" stroke-width="20" stroke-linecap="round"/>
    <path d="M52 142 C82 100, 144 98, 178 142" fill="none" stroke="#0E6E86" stroke-width="12" stroke-linecap="round"/>
    <circle cx="118" cy="158" r="13" fill="#FF7A59"/>
    <path d="M106 92 L132 92 L132 116" fill="none" stroke="#0E6E86" stroke-width="7" stroke-linecap="round"/>
    <circle cx="228" cy="102" r="6" fill="#F4C84A"/>
    <circle cx="6" cy="120" r="4" fill="#F4C84A"/>
  </g><circle cx="592" cy="310" r="78" fill="#EAF5F3" stroke="#D7E7E4"/>
  <g transform="translate(536,258) scale(0.32)">
    <path d="M18 136 C56 48, 170 36, 214 124" fill="none" stroke="#17AAB5" stroke-width="20" stroke-linecap="round"/>
    <path d="M52 142 C82 100, 144 98, 178 142" fill="none" stroke="#0E6E86" stroke-width="12" stroke-linecap="round"/>
    <circle cx="118" cy="158" r="13" fill="#FF7A59"/>
    <path d="M106 92 L132 92 L132 116" fill="none" stroke="#0E6E86" stroke-width="7" stroke-linecap="round"/>
    <circle cx="228" cy="102" r="6" fill="#F4C84A"/>
    <circle cx="6" cy="120" r="4" fill="#F4C84A"/>
  </g><rect x="782" y="232" width="224" height="154" rx="32" fill="#FFF7EE" stroke="#D7E7E4"/>
  <g transform="translate(838,258) scale(0.32)">
    <path d="M18 136 C56 48, 170 36, 214 124" fill="none" stroke="#17AAB5" stroke-width="20" stroke-linecap="round"/>
    <path d="M52 142 C82 100, 144 98, 178 142" fill="none" stroke="#0E6E86" stroke-width="12" stroke-linecap="round"/>
    <circle cx="118" cy="158" r="13" fill="#FF7A59"/>
    <path d="M106 92 L132 92 L132 116" fill="none" stroke="#0E6E86" stroke-width="7" stroke-linecap="round"/>
    <circle cx="228" cy="102" r="6" fill="#F4C84A"/>
    <circle cx="6" cy="120" r="4" fill="#F4C84A"/>
  </g><circle cx="290" cy="530" r="78" fill="#FFF7EE" stroke="#D7E7E4"/>
  <g transform="translate(234,478) scale(0.32)">
    <path d="M18 136 C56 48, 170 36, 214 124" fill="none" stroke="#17AAB5" stroke-width="20" stroke-linecap="round"/>
    <path d="M52 142 C82 100, 144 98, 178 142" fill="none" stroke="#0E6E86" stroke-width="12" stroke-linecap="round"/>
    <circle cx="118" cy="158" r="13" fill="#FF7A59"/>
    <path d="M106 92 L132 92 L132 116" fill="none" stroke="#0E6E86" stroke-width="7" stroke-linecap="round"/>
    <circle cx="228" cy="102" r="6" fill="#F4C84A"/>
    <circle cx="6" cy="120" r="4" fill="#F4C84A"/>
  </g><rect x="480" y="452" width="224" height="154" rx="32" fill="#FFF7EE" stroke="#D7E7E4"/>
  <g transform="translate(536,478) scale(0.32)">
    <path d="M18 136 C56 48, 170 36, 214 124" fill="none" stroke="#17AAB5" stroke-width="20" stroke-linecap="round"/>
    <path d="M52 142 C82 100, 144 98, 178 142" fill="none" stroke="#0E6E86" stroke-width="12" stroke-linecap="round"/>
    <circle cx="118" cy="158" r="13" fill="#FF7A59"/>
    <path d="M106 92 L132 92 L132 116" fill="none" stroke="#0E6E86" stroke-width="7" stroke-linecap="round"/>
    <circle cx="228" cy="102" r="6" fill="#F4C84A"/>
    <circle cx="6" cy="120" r="4" fill="#F4C84A"/>
  </g><circle cx="894" cy="530" r="78" fill="#FFF7EE" stroke="#D7E7E4"/>
  <g transform="translate(838,478) scale(0.32)">
    <path d="M18 136 C56 48, 170 36, 214 124" fill="none" stroke="#17AAB5" stroke-width="20" stroke-linecap="round"/>
    <path d="M52 142 C82 100, 144 98, 178 142" fill="none" stroke="#0E6E86" stroke-width="12" stroke-linecap="round"/>
    <circle cx="118" cy="158" r="13" fill="#FF7A59"/>
    <path d="M106 92 L132 92 L132 116" fill="none" stroke="#0E6E86" stroke-width="7" stroke-linecap="round"/>
    <circle cx="228" cy="102" r="6" fill="#F4C84A"/>
    <circle cx="6" cy="120" r="4" fill="#F4C84A"/>
  </g>
  <text x="160" y="648" font-family="Inter, Arial, sans-serif" font-size="27" font-weight="700" fill="#1C2F3A">Σετ αυτοκόλλητων για αίθουσες, τετράδια και παιδικά badges</text>
  
  <rect width="100%" height="100%" fill="url(#paperGrain)" opacity="0.12"/>
</svg>
