<svg xmlns="http://www.w3.org/2000/svg" width="1120" height="420" viewBox="0 0 1120 420">
  
  <defs>
    <linearGradient id="bgGrad" x1="0" y1="0" x2="1" y2="1">
      <stop offset="0%" stop-color="#F8F4EF"/>
      <stop offset="100%" stop-color="#FFFFFF"/>
    </linearGradient>
    <linearGradient id="accentGrad" x1="0" y1="0" x2="1" y2="1">
      <stop offset="0%" stop-color="#0D7A83"/>
      <stop offset="100%" stop-color="#E86A7C"/>
    </linearGradient>
    <filter id="softShadow" x="-20%" y="-20%" width="140%" height="140%">
      <feDropShadow dx="0" dy="10" stdDeviation="10" flood-opacity="0.16"/>
    </filter>
    <filter id="lightShadow" x="-20%" y="-20%" width="140%" height="140%">
      <feDropShadow dx="0" dy="4" stdDeviation="5" flood-opacity="0.12"/>
    </filter>
    <pattern id="paperGrain" width="10" height="10" patternUnits="userSpaceOnUse">
      <circle cx="2" cy="2" r="0.7" fill="#000" opacity="0.04"/>
    </pattern>
  </defs>
  <rect width="100%" height="100%" fill="url(#bgGrad)"/>
  <rect x="22" y="22" width="1076" height="376" rx="34" fill="#FFFFFF" stroke="#D7E7E4" filter="url(#lightShadow)"/>
  
  <g transform="translate(84,86) scale(1)">
    <rect x="18" y="24" width="188" height="34" rx="17" fill="#0F2A4A"/>
    <rect x="92" y="56" width="36" height="174" rx="16" fill="#0D7A83"/>
    <path d="M82 166 C98 186, 116 194, 136 194 C156 194, 174 184, 190 166" fill="none" stroke="#E86A7C" stroke-width="11" stroke-linecap="round"/>
    <circle cx="196" cy="34" r="7" fill="#E9C46A"/>
    <rect x="12" y="16" width="200" height="222" rx="34" fill="none" stroke="#CAD7E2" stroke-width="2" opacity="0.6"/>
  </g>
  <text x="400" y="188" font-family="Poppins, Nunito, Arial, sans-serif" font-size="122" font-weight="800" fill="#16253D">Τιραμόλα</text>
  <text x="404" y="248" font-family="Inter, Arial, sans-serif" font-size="33" font-weight="700" fill="#0F2A4A">Το Τ που Χαμογελά</text>
  <line x1="404" y1="272" x2="786" y2="272" stroke="#0F2A4A" stroke-width="7" stroke-linecap="round"/>
  <circle cx="996" cy="92" r="18" fill="#E9C46A" opacity="0.8"/>
  <circle cx="1032" cy="138" r="11" fill="#0D7A83" opacity="0.7"/>
  <rect width="100%" height="100%" fill="url(#paperGrain)" opacity="0.2"/>
</svg>
